# xmcd CD database file
#
# Track frame offsets:
#	150
#	20598
#	43919
#	64390
#	85550
#	98306
#	120192
#	138765
#	159297
#	175162
#	190252
#	216427
#
# Disc length: 3185 seconds
#
# Revision: 0
# Processed by: cddbd v1.5.1PL2 Copyright (c) Steve Scherf et al.
# Submitted via: CDex 1.51
#
DISCID=940c6f0c
DTITLE=Jocelyn Fréchette - Cool-Joe en blues
DYEAR=1900
DGENRE=Blues
TTITLE0=Layla  (Éric Clapton)
TTITLE1=Europa  (Santana)
TTITLE2=Messiah will come again  (Roy Buchannan)
TTITLE3=Samba Patti  (Santana)
TTITLE4=Guitar Boogie Shuffle  (Arthur Smith)
TTITLE5=Oye como va (Santana)
TTITLE6=Thrill is gone (B.B. King)
TTITLE7=Blue Bar Joe (Jocelyn Fréchette)
TTITLE8=Black magic woman  (Santana)
TTITLE9=Mer morte  (les Jaguars)
TTITLE10=Cold shot  (Stevie Ray Vaughan)
TTITLE11=Midnight Jo  (Jocelyn  Fréchette)
EXTD=
EXTT0=
EXTT1=
EXTT2=
EXTT3=
EXTT4=
EXTT5=
EXTT6=
EXTT7=
EXTT8=
EXTT9=
EXTT10=
EXTT11=
PLAYORDER=
